<svg xmlns="http://www.w3.org/2000/svg" xmlns:xlink="http://www.w3.org/1999/xlink" version="1.1" x="0px" y="0px" viewBox="0 0 96 120" enable-background="new 0 0 96 96" xml:space="preserve"><g><path d="M88.666,30.027c-0.377-0.081-0.753-0.162-1.129-0.242c-0.443-0.095-0.845-0.072-1.209,0.024   c-0.826,0.139-1.574,0.672-1.867,1.722c-2.251,8.078-4.501,16.156-6.752,24.235c-13.574,0-27.149,0-40.724,0   c-2.809-9.982-5.617-19.965-8.426-29.947c-1.042-3.704-2.329-6.337-5.932-8.448c-1.634-0.957-4.763-0.341-6.522-0.341   c-2.702,0-5.403,0-8.105,0c-1.363,0-2.5,1.137-2.5,2.5c0,0.32,0,0.639,0,0.959c0,1.363,1.137,2.5,2.5,2.5c2.114,0,4.228,0,6.342,0   c1.454,0,2.907,0,4.36,0c0.57,0,0.952,0.047,1.196,0.091c0.649,0.544,1.298,1.089,1.948,1.633c0.005,0.016,0.008,0.023,0.013,0.039   c0.586,2.04,1.172,4.081,1.758,6.121c2.778,9.672,5.557,19.345,8.335,29.018c0.308,1.07,1.289,1.835,2.411,1.835   c15.324,0,30.648,0,45.972,0c1.12,0,2.104-0.765,2.411-1.835c2.555-8.93,5.109-17.859,7.665-26.788   C90.771,31.849,89.988,30.311,88.666,30.027z M21.816,24.617C21.505,24.189,21.584,23.886,21.816,24.617L21.816,24.617z"/><path d="M45.429,63.097c-0.228-0.055-0.471-0.089-0.747-0.074c-0.271-0.015-0.51,0.019-0.735,0.071   c-4.167,0.54-7.1,3.69-7.332,7.995c-0.246,4.544,3.883,7.84,8.067,8.066c4.544,0.245,7.841-3.881,8.068-8.066   C52.981,66.814,49.344,63.646,45.429,63.097z M44.682,73.198c-2.72-0.147-2.721-4.069,0-4.217   C47.407,68.834,47.391,73.052,44.682,73.198z"/><path d="M70.766,63.097c-0.229-0.055-0.472-0.089-0.747-0.074c-0.271-0.015-0.51,0.019-0.735,0.071   c-4.167,0.54-7.099,3.69-7.331,7.995c-0.245,4.544,3.882,7.84,8.066,8.066c4.544,0.246,7.84-3.881,8.066-8.066   C78.315,66.814,74.681,63.647,70.766,63.097z M70.019,73.198c-2.722-0.147-2.723-4.069,0-4.217   C72.743,68.834,72.727,73.052,70.019,73.198z"/></g><text x="0" y="111" fill="#000000" font-size="5px" font-weight="bold" font-family="'Helvetica Neue', Helvetica, Arial-Unicode, Arial, Sans-serif">Created by projecthayat</text><text x="0" y="116" fill="#000000" font-size="5px" font-weight="bold" font-family="'Helvetica Neue', Helvetica, Arial-Unicode, Arial, Sans-serif">from the Noun Project</text></svg>