<svg xmlns="http://www.w3.org/2000/svg" xmlns:xlink="http://www.w3.org/1999/xlink" xml:space="preserve" version="1.1" style="shape-rendering:geometricPrecision;text-rendering:geometricPrecision;image-rendering:optimizeQuality;" viewBox="0 0 418 403.75" x="0px" y="0px" fill-rule="evenodd" clip-rule="evenodd"><defs><style type="text/css">
   
    .fil0 {fill:black}
    .fil1 {fill:black;fill-rule:nonzero}
   
  </style></defs><g><path class="fil0" d="M95 70c106,0 211,0 316,0 7,0 8,5 6,10l-48 166c-1,3 -3,5 -6,5l-224 0c-3,0 -5,-2 -6,-5l-69 -232 -58 0c-8,0 -8,-14 0,-14l64 0c3,0 5,2 6,5l19 65zm21 69l12 42 52 0 -5 -42 -59 0zm73 0l5 42 50 0 0 -42 -55 0zm131 -55l-62 0 0 41 57 0 5 -41zm-76 41l0 -41 -62 0 5 41 57 0zm0 70l-48 0 5 42 43 0 0 -42zm14 0l0 42 43 0 5 -42 -48 0zm0 -14l50 0 5 -42 -55 0 0 42zm69 -42l-5 42 51 0 13 -42 -59 0zm2 -14l61 0 12 -41 -68 0 -5 41zm-161 -41l-68 0 12 41 61 0 -5 -41zm-36 111l13 42 42 0 -5 -42 -50 0zm225 42l12 -42 -49 0 -5 42 42 0z"/><path class="fil1" d="M185 261c17,0 31,14 31,31 0,17 -14,31 -31,31 -17,0 -31,-14 -31,-31 0,-17 14,-31 31,-31zm0 14c-9,0 -17,8 -17,17 0,9 8,17 17,17 9,0 17,-8 17,-17 0,-9 -8,-17 -17,-17z"/><path class="fil1" d="M317 261c18,0 32,14 32,31 0,17 -14,31 -32,31 -17,0 -31,-14 -31,-31 0,-17 14,-31 31,-31zm0 14c-9,0 -16,8 -16,17 0,9 7,17 16,17 10,0 17,-8 17,-17 0,-9 -7,-17 -17,-17z"/></g><text x="0" y="338" fill="#000000" font-size="5px" font-weight="bold" font-family="'Helvetica Neue', Helvetica, Arial-Unicode, Arial, Sans-serif">Created by Iga</text><text x="0" y="343" fill="#000000" font-size="5px" font-weight="bold" font-family="'Helvetica Neue', Helvetica, Arial-Unicode, Arial, Sans-serif">from the Noun Project</text></svg>