<svg xmlns="http://www.w3.org/2000/svg" width="115.4" height="116" viewBox="0 0 115.4 116">
  <g id="dj_Icon" transform="translate(-6.3 -6)">
    <g id="Group_1" data-name="Group 1">
      <path id="Path_1" data-name="Path 1" d="M113.6,122a8.13,8.13,0,0,0,8.1-8.1V14.1A8.13,8.13,0,0,0,113.6,6H14.4a8.2,8.2,0,0,0-8.1,8.1v99.7a8.13,8.13,0,0,0,8.1,8.1h99.2ZM14.4,10h99.1a4.118,4.118,0,0,1,4.1,4.1V69.2H10.3V14.1A4.185,4.185,0,0,1,14.4,10ZM10.3,113.9V73.3H117.7v40.6a4.118,4.118,0,0,1-4.1,4.1H14.4A4.185,4.185,0,0,1,10.3,113.9Z"/>
      <path id="Path_2" data-name="Path 2" d="M39.5,65.1A26.5,26.5,0,1,0,13,38.6,26.546,26.546,0,0,0,39.5,65.1Zm0-49A22.5,22.5,0,1,1,17,38.6,22.534,22.534,0,0,1,39.5,16.1Z"/>
      <path id="Path_3" data-name="Path 3" d="M39.5,49.4A10.8,10.8,0,1,0,28.7,38.6,10.819,10.819,0,0,0,39.5,49.4Zm0-17.7a6.8,6.8,0,1,1-6.8,6.8A6.807,6.807,0,0,1,39.5,31.7Z"/>
      <path id="Path_4" data-name="Path 4" d="M47.7,26.8A15.522,15.522,0,0,1,53.8,35a2.007,2.007,0,0,0,1.9,1.4,1.268,1.268,0,0,0,.6-.1,1.876,1.876,0,0,0,1.3-2.5A18.9,18.9,0,0,0,50,23.4a2.052,2.052,0,0,0-2.3,3.4Z"/>
      <path id="Path_5" data-name="Path 5" d="M38.8,24.2a19.827,19.827,0,0,1,3.5.3h.4a2.023,2.023,0,0,0,2-1.6,2.122,2.122,0,0,0-1.5-2.4,17.15,17.15,0,0,0-4.5-.4,2.006,2.006,0,0,0-2,2A2.045,2.045,0,0,0,38.8,24.2Z"/>
      <path id="Path_6" data-name="Path 6" d="M29,55a2.016,2.016,0,0,0,1.1.3,2.091,2.091,0,0,0,1.7-.9,2.05,2.05,0,0,0-.5-2.8,15.522,15.522,0,0,1-6.1-8.2,1.992,1.992,0,0,0-3.8,1.2A19.238,19.238,0,0,0,29,55Z"/>
      <path id="Path_7" data-name="Path 7" d="M40.2,54.2a19.827,19.827,0,0,1-3.5-.3,2.122,2.122,0,0,0-2.4,1.5,2.088,2.088,0,0,0,1.5,2.4,18.4,18.4,0,0,0,4.1.4h.4a2.006,2.006,0,0,0,2-2A2.165,2.165,0,0,0,40.2,54.2Z"/>
      <path id="Path_8" data-name="Path 8" d="M79.2,33.8H81V59.5h4V33.8h1.8a5.378,5.378,0,0,0,5.4-5.4A5.294,5.294,0,0,0,86.9,23H85.1V17.7h-4V23H79.3a5.378,5.378,0,0,0-5.4,5.4A5.294,5.294,0,0,0,79.2,33.8Zm0-6.8h7.7a1.4,1.4,0,1,1,0,2.8H79.2a1.4,1.4,0,1,1,0-2.8Z"/>
      <path id="Path_9" data-name="Path 9" d="M97.4,49.2h1.8V59.4h4V49.2H105a5.4,5.4,0,0,0,0-10.8h-1.8V17.7h-4V38.4H97.4a5.4,5.4,0,1,0,0,10.8Zm0-6.8h7.7a1.4,1.4,0,1,1,0,2.8H97.4a1.4,1.4,0,1,1,0-2.8Z"/>
      <path id="Path_10" data-name="Path 10" d="M23.1,109.2A10.9,10.9,0,1,0,12.2,98.3,10.926,10.926,0,0,0,23.1,109.2Zm0-17.7a6.9,6.9,0,1,1-6.9,6.9A6.914,6.914,0,0,1,23.1,91.5Z"/>
      <path id="Path_11" data-name="Path 11" d="M21.1,102.1h4v-2h2.1v-4H25.1V94h-4v2.1H19v4h2.1Z"/>
      <path id="Path_12" data-name="Path 12" d="M50.4,109.2A10.9,10.9,0,1,0,39.5,98.3,10.926,10.926,0,0,0,50.4,109.2Zm0-17.7a6.9,6.9,0,1,1-6.9,6.9A6.914,6.914,0,0,1,50.4,91.5Z"/>
      <path id="Path_13" data-name="Path 13" d="M48.4,102.1h4v-2h2.1v-4H52.4V94h-4v2.1H46.3v4h2.1Z"/>
      <path id="Path_14" data-name="Path 14" d="M77.6,109.2A10.9,10.9,0,1,0,66.7,98.3,10.926,10.926,0,0,0,77.6,109.2Zm0-17.7a6.9,6.9,0,1,1-6.9,6.9A6.914,6.914,0,0,1,77.6,91.5Z"/>
      <path id="Path_15" data-name="Path 15" d="M75.6,102.1h4v-2h2.1v-4H79.6V94h-4v2.1H73.5v4h2.1Z"/>
      <path id="Path_16" data-name="Path 16" d="M104.9,109.2A10.9,10.9,0,1,0,94,98.4,10.926,10.926,0,0,0,104.9,109.2Zm0-17.7A6.9,6.9,0,1,1,98,98.4,6.914,6.914,0,0,1,104.9,91.5Z"/>
      <path id="Path_17" data-name="Path 17" d="M102.9,102.1h4v-2H109v-4h-2.1V94h-4v2.1h-2.1v4h2.1Z"/>
      <rect id="Rectangle_1" data-name="Rectangle 1" width="9.7" height="4" transform="translate(18.5 80.2)"/>
      <rect id="Rectangle_2" data-name="Rectangle 2" width="9.7" height="4" transform="translate(45.7 80.2)"/>
      <rect id="Rectangle_3" data-name="Rectangle 3" width="9.7" height="4" transform="translate(72.9 80.2)"/>
      <rect id="Rectangle_4" data-name="Rectangle 4" width="9.7" height="4" transform="translate(100.2 80.2)"/>
    </g>
  </g>
</svg>
