<svg xmlns="http://www.w3.org/2000/svg" xmlns:xlink="http://www.w3.org/1999/xlink" version="1.1" x="0px" y="0px" viewBox="0 0 100 125" enable-background="new 0 0 100 100" xml:space="preserve"><g><path d="M52.598,11.461c-12.979,0-23.5,10.522-23.5,23.5c0,12.979,10.521,23.5,23.5,23.5c12.979,0,23.5-10.521,23.5-23.5   C76.098,21.982,65.577,11.461,52.598,11.461z M95.114,95.637c-0.104-17.161-9.532-32.009-23.262-39.302   c-5.115,4.583-11.863,7.376-19.26,7.376c-7.391,0-14.139-2.793-19.248-7.376c-3.144,1.671-6.048,3.754-8.68,6.153l-2.83-2.257   l2.43-11.404c1.965-0.852,3.339-2.807,3.339-5.086v-7.745c0-1.342-0.495-2.555-1.289-3.515   C27.881,19.343,39.039,9.153,52.599,9.153c13.56,0,24.716,10.189,26.284,23.323c0.004-0.005,0.01-0.01,0.014-0.016   c-0.802,0.962-1.305,2.184-1.305,3.535v7.745c0,3.063,2.481,5.544,5.545,5.544c3.062,0,5.544-2.48,5.544-5.544v-7.745   c0-2.968-2.335-5.368-5.267-5.516C80.942,15.685,68.083,4.363,52.599,4.363c-15.484,0-28.344,11.321-30.817,26.117   c-0.489,0.024-0.952,0.132-1.4,0.274c-0.119-0.03-0.235-0.067-0.356-0.093c-4.285-0.911-8.412,1.414-9.215,5.194   c0,0-5.452,25.27-5.54,25.579c-0.862,3.022-0.295,7.103,1.911,8.861l7.067,6.488c-2.622,5.717-4.125,12.1-4.166,18.852H95.114z"/></g><text x="0" y="115" fill="#000000" font-size="5px" font-weight="bold" font-family="'Helvetica Neue', Helvetica, Arial-Unicode, Arial, Sans-serif">Created by Felipe Alvarado</text><text x="0" y="120" fill="#000000" font-size="5px" font-weight="bold" font-family="'Helvetica Neue', Helvetica, Arial-Unicode, Arial, Sans-serif">from the Noun Project</text></svg>