<svg id="shopping-cart_icon" xmlns="http://www.w3.org/2000/svg" width="417.91" height="323" viewBox="0 0 417.91 323">
  <g id="Group_1" data-name="Group 1">
    <path id="Path_1" data-name="Path 1" d="M95,70H411c7,0,8,5,6,10L369,246c-1,3-3,5-6,5H139c-3,0-5-2-6-5L64,14H6C-2,14-2,0,6,0H70c3,0,5,2,6,5Zm21,69,12,42h52l-5-42Zm73,0,5,42h50V139ZM320,84H258v41h57Zm-76,41V84H182l5,41Zm0,70H196l5,42h43Zm14,0v42h43l5-42Zm0-14h50l5-42H258Zm69-42-5,42h51l13-42Zm2-14h61l12-41H334ZM168,84H100l12,41h61ZM132,195l13,42h42l-5-42Zm225,42,12-42H320l-5,42Z" fill-rule="evenodd"/>
    <path id="Path_2" data-name="Path 2" d="M185,261a31,31,0,1,1-31,31A31.156,31.156,0,0,1,185,261Zm0,14c-9,0-17,8-17,17s8,17,17,17,17-8,17-17S194,275,185,275Z"/>
    <path id="Path_3" data-name="Path 3" d="M317,261c18,0,32,14,32,31s-14,31-32,31a31,31,0,0,1,0-62Zm0,14c-9,0-16,8-16,17s7,17,16,17a17,17,0,0,0,0-34Z"/>
  </g>
</svg>
